<?xml version="1.0" encoding="UTF-8"?>
<svg id="Camada_1" data-name="Camada 1" xmlns="http://www.w3.org/2000/svg" xmlns:xlink="http://www.w3.org/1999/xlink" viewBox="0 0 863.12 827.74">
  <defs>
    <style>
      .cls-1 {
        fill: #7eaa85;
      }

      .cls-2 {
        fill: url(#Gradiente_sem_nome_132-3);
      }

      .cls-3 {
        fill: #7fa985;
      }

      .cls-4 {
        fill: url(#Gradiente_sem_nome_132);
      }

      .cls-5 {
        fill: url(#Gradiente_sem_nome_132-2);
      }
    </style>
    <linearGradient id="Gradiente_sem_nome_132" data-name="Gradiente sem nome 132" x1="291.6" y1="208.26" x2="300.22" y2="208.26" gradientUnits="userSpaceOnUse">
      <stop offset="0" stop-color="#a27613"/>
      <stop offset=".24" stop-color="#fed25f"/>
      <stop offset=".49" stop-color="#fffffe"/>
      <stop offset=".74" stop-color="#ffda64"/>
      <stop offset="1" stop-color="#a27713"/>
    </linearGradient>
    <linearGradient id="Gradiente_sem_nome_132-2" data-name="Gradiente sem nome 132" y1="261.05" y2="261.05" xlink:href="#Gradiente_sem_nome_132"/>
    <linearGradient id="Gradiente_sem_nome_132-3" data-name="Gradiente sem nome 132" x1="300.22" y1="234.78" x2="528.81" y2="234.78" xlink:href="#Gradiente_sem_nome_132"/>
  </defs>
  <g>
    <path class="cls-1" d="M516.37,262.35c-15.25,0-27.66-12.41-27.66-27.66s12.41-27.66,27.66-27.66,27.66,12.41,27.66,27.66-12.41,27.66-27.66,27.66ZM516.37,220.92c-7.59,0-13.77,6.18-13.77,13.77s6.18,13.77,13.77,13.77,13.77-6.18,13.77-13.77-6.18-13.77-13.77-13.77Z"/>
    <path class="cls-4" d="M291.6,241.3h8.62v-66.09l-8.61,52.54v13.55Z"/>
    <g>
      <path class="cls-5" d="M291.6,241.3l8.62,53.05v-66.59h-8.61v13.55Z"/>
      <path class="cls-2" d="M450.95,234.42c44.99-16.21,77.23-59.33,77.23-109.83V48.15h-53.98c-81.33,0-150.41,53.45-173.98,127.07v119.14c23.56,73.62,92.64,127.07,173.98,127.07h54.61v-76.95c0-50.75-32.54-94.02-77.86-110.04ZM474.2,62.04h40.09v62.55c0,56.7-46.13,102.82-102.82,102.82h-105.97c1.79-91.5,76.78-165.38,168.7-165.38ZM514.92,407.52h-40.72c-92.09,0-167.18-74.16-168.71-165.88h106.61c56.7,0,102.82,46.13,102.82,102.82v63.06Z"/>
    </g>
    <path class="cls-1" d="M300.22,444.81V0h-14.34v459.17h243.93v-14.36h-229.58Z"/>
  </g>
  <g>
    <path class="cls-3" d="M83.17,622.59v-113.93h12.04v103.52h63.8v10.42h-75.85Z"/>
    <path class="cls-3" d="M206.54,623.4c-7.27,0-13.62-1.36-19.04-4.07-5.43-2.71-9.63-6.78-12.61-12.21-2.99-5.42-4.48-12.21-4.48-20.35v-49.64h11.56v48.34c0,9.11,2.25,15.98,6.75,20.59,4.5,4.61,10.82,6.92,18.96,6.92,5.97,0,11.15-1.22,15.54-3.66s7.76-5.99,10.09-10.66c2.33-4.66,3.5-10.25,3.5-16.76v-44.76h11.56v85.45h-11.07v-23.44l1.79,4.23c-2.71,6.29-6.92,11.21-12.61,14.73-5.7,3.53-12.34,5.29-19.94,5.29Z"/>
    <path class="cls-3" d="M312.01,623.4c-8.46,0-16.03-1.87-22.71-5.62-6.67-3.74-11.91-8.9-15.71-15.46-3.8-6.56-5.7-14.08-5.7-22.54s1.9-16.11,5.7-22.62c3.8-6.51,9.03-11.61,15.71-15.3,6.67-3.69,14.24-5.53,22.71-5.53,7.27,0,13.83,1.41,19.69,4.23,5.86,2.82,10.47,7.05,13.83,12.7l-8.63,5.86c-2.93-4.34-6.57-7.54-10.9-9.6-4.34-2.06-9.06-3.09-14.16-3.09-6.08,0-11.56,1.38-16.44,4.15-4.88,2.77-8.74,6.65-11.56,11.64-2.82,4.99-4.23,10.85-4.23,17.58s1.41,12.59,4.23,17.58c2.82,4.99,6.67,8.87,11.56,11.64,4.88,2.77,10.36,4.15,16.44,4.15,5.1,0,9.82-1.03,14.16-3.09,4.34-2.06,7.98-5.21,10.9-9.44l8.63,5.86c-3.36,5.53-7.98,9.74-13.83,12.61-5.86,2.88-12.43,4.31-19.69,4.31Z"/>
    <path class="cls-3" d="M368.65,518.26c-2.39,0-4.39-.81-6.02-2.44-1.63-1.63-2.44-3.58-2.44-5.86s.81-4.2,2.44-5.78c1.63-1.57,3.63-2.36,6.02-2.36s4.39.76,6.02,2.28c1.63,1.52,2.44,3.42,2.44,5.7s-.79,4.4-2.36,6.02c-1.57,1.63-3.61,2.44-6.1,2.44ZM362.79,622.59v-85.45h11.56v85.45h-11.56Z"/>
    <path class="cls-3" d="M402.51,622.59v-85.45h11.07v23.11l-1.79-4.07c2.6-6.19,6.81-11.04,12.61-14.57,5.8-3.52,12.67-5.29,20.59-5.29,8.35,0,15.46,2.09,21.32,6.27,5.86,4.18,9.66,10.44,11.39,18.8l-4.56-1.79c2.49-6.94,6.92-12.56,13.26-16.85,6.35-4.29,13.97-6.43,22.87-6.43,6.94,0,12.99,1.33,18.15,3.99,5.15,2.66,9.17,6.7,12.04,12.12,2.87,5.43,4.31,12.26,4.31,20.51v49.64h-11.55v-48.5c0-9-2.14-15.81-6.43-20.43-4.29-4.61-10.34-6.92-18.15-6.92-5.86,0-10.93,1.22-15.22,3.66-4.29,2.44-7.6,5.97-9.93,10.58-2.33,4.61-3.5,10.17-3.5,16.68v44.92h-11.56v-48.5c0-9-2.17-15.81-6.51-20.43-4.34-4.61-10.42-6.92-18.23-6.92-5.75,0-10.8,1.22-15.14,3.66-4.34,2.44-7.68,5.97-10.01,10.58-2.33,4.61-3.5,10.17-3.5,16.68v44.92h-11.56Z"/>
    <path class="cls-3" d="M595.22,623.4c-6.4,0-11.96-1.06-16.68-3.17-4.72-2.12-8.33-5.04-10.82-8.79-2.5-3.74-3.74-8.06-3.74-12.94,0-4.45,1.06-8.49,3.17-12.12,2.12-3.63,5.59-6.56,10.42-8.79,4.83-2.22,11.31-3.34,19.45-3.34h29.46v8.63h-29.13c-8.25,0-13.97,1.46-17.17,4.39-3.2,2.93-4.8,6.57-4.8,10.91,0,4.88,1.9,8.79,5.7,11.72,3.8,2.93,9.11,4.39,15.95,4.39s12.13-1.49,16.85-4.48c4.72-2.98,8.16-7.3,10.34-12.94l2.6,7.97c-2.17,5.64-5.94,10.15-11.31,13.51-5.37,3.36-12.13,5.04-20.26,5.04ZM624.68,622.59v-18.88l-.49-3.09v-31.58c0-7.27-2.04-12.86-6.1-16.76-4.07-3.91-10.12-5.86-18.15-5.86-5.53,0-10.8.92-15.79,2.77-4.99,1.85-9.22,4.29-12.7,7.32l-5.21-8.63c4.34-3.69,9.55-6.54,15.62-8.54,6.08-2.01,12.48-3.01,19.21-3.01,11.07,0,19.61,2.74,25.63,8.22,6.02,5.48,9.03,13.81,9.03,24.98v53.06h-11.07Z"/>
    <path class="cls-3" d="M663.09,622.59v-85.45h11.07v23.27l-1.14-4.07c2.38-6.51,6.4-11.47,12.04-14.89,5.64-3.42,12.64-5.13,21-5.13v11.23c-.43,0-.87-.03-1.3-.08-.43-.05-.87-.08-1.3-.08-9.01,0-16.06,2.74-21.16,8.22-5.1,5.48-7.65,13.27-7.65,23.36v43.62h-11.56Z"/>
    <path class="cls-3" d="M741.7,623.4c-6.4,0-11.96-1.06-16.68-3.17-4.72-2.12-8.33-5.04-10.82-8.79-2.5-3.74-3.74-8.06-3.74-12.94,0-4.45,1.06-8.49,3.17-12.12,2.12-3.63,5.59-6.56,10.42-8.79,4.83-2.22,11.31-3.34,19.45-3.34h29.46v8.63h-29.13c-8.25,0-13.97,1.46-17.17,4.39-3.2,2.93-4.8,6.57-4.8,10.91,0,4.88,1.9,8.79,5.7,11.72,3.8,2.93,9.11,4.39,15.95,4.39s12.13-1.49,16.85-4.48c4.72-2.98,8.16-7.3,10.34-12.94l2.6,7.97c-2.17,5.64-5.94,10.15-11.31,13.51-5.37,3.36-12.13,5.04-20.26,5.04ZM771.16,622.59v-18.88l-.49-3.09v-31.58c0-7.27-2.04-12.86-6.1-16.76-4.07-3.91-10.12-5.86-18.15-5.86-5.53,0-10.8.92-15.79,2.77-4.99,1.85-9.22,4.29-12.7,7.32l-5.21-8.63c4.34-3.69,9.55-6.54,15.62-8.54,6.08-2.01,12.48-3.01,19.21-3.01,11.07,0,19.61,2.74,25.63,8.22,6.02,5.48,9.03,13.81,9.03,24.98v53.06h-11.07Z"/>
    <path class="cls-3" d="M59.57,758.27c-8.57,0-16.49-1.44-23.76-4.31-7.27-2.87-13.56-6.92-18.88-12.12-5.32-5.21-9.47-11.34-12.45-18.39-2.99-7.05-4.48-14.75-4.48-23.11s1.49-16.06,4.48-23.11c2.98-7.05,7.16-13.18,12.53-18.39,5.37-5.21,11.69-9.25,18.96-12.12,7.27-2.87,15.19-4.31,23.76-4.31s16,1.38,23.27,4.15c7.27,2.77,13.4,6.92,18.39,12.45l-7.65,7.65c-4.67-4.77-9.82-8.22-15.46-10.33-5.64-2.12-11.72-3.17-18.23-3.17-6.84,0-13.18,1.17-19.04,3.5-5.86,2.33-10.96,5.64-15.3,9.93-4.34,4.29-7.73,9.28-10.17,14.97-2.44,5.7-3.66,11.96-3.66,18.8s1.22,13.1,3.66,18.8c2.44,5.7,5.83,10.69,10.17,14.97,4.34,4.29,9.44,7.6,15.3,9.93,5.86,2.33,12.21,3.5,19.04,3.5s12.59-1.08,18.23-3.25c5.64-2.17,10.8-5.64,15.46-10.42l7.65,7.65c-4.99,5.53-11.12,9.71-18.39,12.53-7.27,2.82-15.08,4.23-23.44,4.23Z"/>
    <path class="cls-3" d="M150.07,758.1c-8.36,0-15.79-1.87-22.3-5.62-6.51-3.74-11.67-8.92-15.46-15.54-3.8-6.62-5.7-14.1-5.7-22.46s1.9-16.11,5.7-22.62c3.8-6.51,8.95-11.61,15.46-15.3,6.51-3.69,13.94-5.53,22.3-5.53s15.98,1.87,22.54,5.62c6.56,3.74,11.72,8.85,15.46,15.3,3.74,6.46,5.62,13.97,5.62,22.54s-1.87,15.98-5.62,22.54c-3.74,6.57-8.93,11.72-15.54,15.46-6.62,3.74-14.11,5.62-22.46,5.62ZM150.07,747.85c6.18,0,11.66-1.38,16.44-4.15,4.77-2.77,8.54-6.67,11.31-11.72,2.77-5.04,4.15-10.88,4.15-17.5s-1.38-12.59-4.15-17.58c-2.77-4.99-6.54-8.87-11.31-11.64-4.78-2.77-10.2-4.15-16.28-4.15s-11.5,1.38-16.28,4.15c-4.78,2.77-8.57,6.65-11.39,11.64-2.82,4.99-4.23,10.85-4.23,17.58s1.41,12.45,4.23,17.5c2.82,5.05,6.59,8.95,11.31,11.72,4.72,2.77,10.12,4.15,16.19,4.15Z"/>
    <path class="cls-3" d="M213.22,757.29v-85.45h11.07v23.11l-1.79-4.07c2.6-6.19,6.81-11.04,12.61-14.57,5.8-3.52,12.67-5.29,20.59-5.29,8.35,0,15.46,2.09,21.32,6.27,5.86,4.18,9.66,10.44,11.39,18.8l-4.56-1.79c2.5-6.94,6.92-12.56,13.27-16.85,6.35-4.29,13.97-6.43,22.87-6.43,6.94,0,12.99,1.33,18.15,3.99,5.15,2.66,9.17,6.7,12.04,12.12,2.87,5.43,4.31,12.26,4.31,20.51v49.64h-11.56v-48.5c0-9-2.14-15.81-6.43-20.43-4.29-4.61-10.34-6.92-18.15-6.92-5.86,0-10.93,1.22-15.22,3.66-4.29,2.44-7.6,5.97-9.93,10.58-2.33,4.61-3.5,10.17-3.5,16.68v44.92h-11.56v-48.5c0-9-2.17-15.81-6.51-20.43-4.34-4.61-10.42-6.92-18.23-6.92-5.75,0-10.8,1.22-15.14,3.66-4.34,2.44-7.68,5.97-10.01,10.58-2.33,4.61-3.5,10.17-3.5,16.68v44.92h-11.56Z"/>
    <path class="cls-3" d="M381.84,757.29v-120.77h11.56v60.55l-1.63,17.25,1.14,17.25v25.72h-11.07ZM425.95,758.1c-7.49,0-14.22-1.71-20.18-5.13-5.97-3.42-10.69-8.38-14.16-14.89-3.47-6.51-5.21-14.38-5.21-23.6s1.76-17.22,5.29-23.68c3.52-6.45,8.27-11.37,14.24-14.73,5.97-3.36,12.64-5.05,20.02-5.05,8.14,0,15.43,1.82,21.89,5.45,6.46,3.64,11.53,8.71,15.22,15.22,3.69,6.51,5.53,14.11,5.53,22.79s-1.85,16.14-5.53,22.71c-3.69,6.57-8.76,11.69-15.22,15.38-6.46,3.69-13.75,5.53-21.89,5.53ZM425.13,747.85c6.08,0,11.5-1.38,16.28-4.15,4.77-2.77,8.57-6.67,11.39-11.72,2.82-5.04,4.23-10.88,4.23-17.5s-1.41-12.59-4.23-17.58c-2.82-4.99-6.62-8.87-11.39-11.64-4.78-2.77-10.2-4.15-16.28-4.15s-11.53,1.38-16.36,4.15c-4.83,2.77-8.63,6.65-11.39,11.64-2.77,4.99-4.15,10.85-4.15,17.58s1.38,12.45,4.15,17.5c2.77,5.05,6.56,8.95,11.39,11.72,4.83,2.77,10.28,4.15,16.36,4.15Z"/>
    <path class="cls-3" d="M493.98,652.96c-2.39,0-4.39-.81-6.02-2.44s-2.44-3.58-2.44-5.86.81-4.2,2.44-5.78c1.63-1.57,3.63-2.36,6.02-2.36s4.39.76,6.02,2.28c1.63,1.52,2.44,3.42,2.44,5.7s-.79,4.39-2.36,6.02c-1.57,1.63-3.61,2.44-6.1,2.44ZM488.12,757.29v-85.45h11.56v85.45h-11.56Z"/>
    <path class="cls-3" d="M527.83,757.29v-85.45h11.07v23.44l-1.79-4.39c2.71-6.19,7.05-11.04,13.02-14.57,5.97-3.52,13.08-5.29,21.32-5.29,6.94,0,13.05,1.33,18.31,3.99,5.26,2.66,9.38,6.7,12.37,12.12,2.98,5.43,4.48,12.26,4.48,20.51v49.64h-11.56v-48.5c0-9-2.25-15.81-6.75-20.43-4.5-4.61-10.82-6.92-18.96-6.92-6.08,0-11.37,1.22-15.87,3.66-4.5,2.44-7.98,5.97-10.42,10.58-2.44,4.61-3.66,10.17-3.66,16.68v44.92h-11.56Z"/>
    <path class="cls-3" d="M657.88,758.1c-6.4,0-11.96-1.06-16.68-3.17-4.72-2.12-8.33-5.04-10.82-8.79-2.5-3.74-3.74-8.06-3.74-12.94,0-4.45,1.06-8.49,3.17-12.12,2.12-3.63,5.59-6.56,10.42-8.79,4.83-2.22,11.31-3.34,19.45-3.34h29.46v8.63h-29.13c-8.25,0-13.97,1.46-17.17,4.39-3.2,2.93-4.8,6.57-4.8,10.91,0,4.88,1.9,8.79,5.7,11.72,3.8,2.93,9.11,4.39,15.95,4.39s12.13-1.49,16.85-4.48c4.72-2.98,8.16-7.3,10.34-12.94l2.6,7.97c-2.17,5.64-5.94,10.15-11.31,13.51-5.37,3.36-12.13,5.04-20.26,5.04ZM687.34,757.29v-18.88l-.49-3.09v-31.58c0-7.27-2.04-12.86-6.1-16.76-4.07-3.91-10.12-5.86-18.15-5.86-5.53,0-10.8.92-15.79,2.77-4.99,1.85-9.22,4.29-12.7,7.32l-5.21-8.63c4.34-3.69,9.55-6.54,15.62-8.54,6.08-2.01,12.48-3.01,19.21-3.01,11.07,0,19.61,2.74,25.63,8.22,6.02,5.48,9.03,13.81,9.03,24.98v53.06h-11.07Z"/>
    <path class="cls-3" d="M712.41,681.44v-9.6h52.9v9.6h-52.9ZM752.77,758.1c-8.03,0-14.22-2.17-18.55-6.51-4.34-4.34-6.51-10.47-6.51-18.39v-80.24h11.56v79.59c0,4.99,1.27,8.84,3.83,11.56,2.55,2.71,6.21,4.07,10.99,4.07,5.1,0,9.33-1.46,12.7-4.39l4.07,8.3c-2.28,2.06-5.02,3.58-8.22,4.56-3.2.98-6.48,1.46-9.85,1.46Z"/>
    <path class="cls-3" d="M819.5,758.1c-8.36,0-15.79-1.87-22.3-5.62-6.51-3.74-11.67-8.92-15.46-15.54-3.8-6.62-5.7-14.1-5.7-22.46s1.9-16.11,5.7-22.62c3.8-6.51,8.95-11.61,15.46-15.3,6.51-3.69,13.94-5.53,22.3-5.53s15.98,1.87,22.54,5.62c6.56,3.74,11.72,8.85,15.46,15.3,3.74,6.46,5.62,13.97,5.62,22.54s-1.87,15.98-5.62,22.54c-3.74,6.57-8.93,11.72-15.54,15.46-6.62,3.74-14.11,5.62-22.46,5.62ZM819.5,747.85c6.18,0,11.66-1.38,16.44-4.15,4.77-2.77,8.54-6.67,11.31-11.72,2.77-5.04,4.15-10.88,4.15-17.5s-1.38-12.59-4.15-17.58c-2.77-4.99-6.54-8.87-11.31-11.64-4.78-2.77-10.2-4.15-16.28-4.15s-11.5,1.38-16.28,4.15c-4.78,2.77-8.57,6.65-11.39,11.64-2.82,4.99-4.23,10.85-4.23,17.58s1.41,12.45,4.23,17.5c2.82,5.05,6.59,8.95,11.31,11.72,4.72,2.77,10.12,4.15,16.2,4.15Z"/>
    <path class="cls-3" d="M311.15,819.3c-2.36,0-4.55-.4-6.56-1.19-2.01-.79-3.74-1.91-5.21-3.34-1.47-1.44-2.61-3.13-3.44-5.07-.82-1.95-1.23-4.07-1.23-6.38s.41-4.43,1.23-6.38c.82-1.95,1.98-3.64,3.46-5.07,1.48-1.44,3.23-2.55,5.23-3.35,2-.79,4.19-1.19,6.56-1.19s4.42.38,6.42,1.15c2.01.76,3.7,1.91,5.07,3.43l-2.11,2.11c-1.29-1.32-2.71-2.27-4.27-2.85-1.56-.58-3.23-.88-5.03-.88-1.89,0-3.64.32-5.25.96-1.62.64-3.02,1.56-4.22,2.74s-2.13,2.56-2.81,4.13c-.67,1.57-1.01,3.3-1.01,5.19s.34,3.61,1.01,5.19c.67,1.57,1.61,2.95,2.81,4.13,1.2,1.18,2.6,2.1,4.22,2.74s3.37.96,5.25.96,3.47-.3,5.03-.9c1.56-.6,2.98-1.56,4.27-2.87l2.11,2.11c-1.38,1.53-3.07,2.68-5.07,3.46-2.01.78-4.16,1.17-6.47,1.17Z"/>
    <path class="cls-3" d="M327.53,819.03v-23.57h3.05v6.42l-.31-1.12c.66-1.8,1.77-3.17,3.32-4.11,1.56-.94,3.49-1.41,5.79-1.41v3.1c-.12,0-.24,0-.36-.02-.12-.02-.24-.02-.36-.02-2.48,0-4.43.76-5.84,2.27-1.41,1.51-2.11,3.66-2.11,6.44v12.03h-3.19Z"/>
    <path class="cls-3" d="M344.06,827.74v-32.28h3.05v7.09l-.31,4.71.45,4.76v15.71h-3.19ZM356.23,819.25c-2.04,0-3.88-.47-5.52-1.41-1.65-.94-2.96-2.3-3.93-4.09-.97-1.78-1.46-3.96-1.46-6.53s.48-4.75,1.44-6.53c.96-1.78,2.26-3.13,3.91-4.06,1.65-.93,3.5-1.39,5.57-1.39,2.25,0,4.26.5,6.04,1.5,1.78,1,3.18,2.41,4.2,4.22,1.02,1.81,1.53,3.9,1.53,6.26s-.51,4.49-1.53,6.29c-1.02,1.8-2.42,3.2-4.2,4.22-1.78,1.02-3.79,1.53-6.04,1.53ZM356,816.42c1.68,0,3.17-.38,4.49-1.14,1.32-.76,2.36-1.84,3.14-3.23.78-1.39,1.17-3,1.17-4.83s-.39-3.43-1.17-4.8c-.78-1.38-1.83-2.45-3.14-3.23-1.32-.78-2.81-1.17-4.49-1.17s-3.18.39-4.51,1.17c-1.33.78-2.38,1.86-3.14,3.23-.76,1.38-1.15,2.98-1.15,4.8s.38,3.43,1.15,4.83c.76,1.39,1.81,2.47,3.14,3.23,1.33.76,2.84,1.14,4.51,1.14Z"/>
    <path class="cls-3" d="M394.43,819.3c-2.42,0-4.58-.64-6.47-1.91-1.89-1.27-3.37-3.1-4.44-5.48-1.08-2.38-1.62-5.25-1.62-8.6s.54-6.22,1.62-8.6c1.08-2.38,2.56-4.21,4.44-5.48,1.89-1.27,4.04-1.91,6.47-1.91s4.58.64,6.47,1.91c1.89,1.27,3.37,3.1,4.47,5.48,1.09,2.38,1.64,5.25,1.64,8.6s-.55,6.22-1.64,8.6c-1.09,2.38-2.58,4.21-4.47,5.48s-4.04,1.91-6.47,1.91ZM394.43,816.33c1.86,0,3.47-.5,4.85-1.5,1.38-1,2.45-2.47,3.23-4.4.78-1.93,1.17-4.3,1.17-7.12s-.39-5.19-1.17-7.12c-.78-1.93-1.86-3.4-3.23-4.4-1.38-1-2.99-1.5-4.85-1.5s-3.4.5-4.8,1.5c-1.41,1-2.5,2.47-3.28,4.4-.78,1.93-1.17,4.3-1.17,7.12s.39,5.19,1.17,7.12c.78,1.93,1.87,3.4,3.28,4.4,1.41,1,3.01,1.5,4.8,1.5Z"/>
    <path class="cls-3" d="M423.4,819.3c-2.78,0-5.13-.62-7.05-1.86-1.92-1.24-3.37-3.04-4.36-5.39s-1.48-5.17-1.48-8.46c0-3.56.61-6.55,1.82-8.96,1.21-2.41,2.9-4.23,5.05-5.46,2.15-1.23,4.65-1.84,7.5-1.84,1.41,0,2.75.13,4.04.4,1.29.27,2.42.7,3.41,1.3l-1.3,2.6c-.81-.54-1.74-.92-2.78-1.15-1.05-.22-2.16-.34-3.32-.34-3.38,0-6.08,1.08-8.1,3.23s-3.03,5.37-3.03,9.65c0,.66.04,1.47.11,2.45.07.97.25,1.94.52,2.9l-1.12-.85c.33-1.56.97-2.88,1.93-3.97.96-1.09,2.16-1.92,3.59-2.49,1.44-.57,3.01-.85,4.71-.85,2.1,0,3.94.39,5.52,1.17,1.59.78,2.83,1.87,3.73,3.28.9,1.41,1.35,3.07,1.35,4.98s-.46,3.64-1.39,5.1c-.93,1.45-2.21,2.58-3.84,3.37-1.63.79-3.46,1.19-5.5,1.19ZM423.26,816.56c1.5,0,2.82-.28,3.97-.83,1.15-.55,2.06-1.35,2.72-2.38.66-1.03.99-2.24.99-3.61,0-2.07-.71-3.71-2.13-4.94-1.42-1.23-3.35-1.84-5.77-1.84-1.62,0-3.02.3-4.22.9-1.2.6-2.14,1.41-2.83,2.45-.69,1.03-1.03,2.21-1.03,3.53,0,1.14.31,2.22.94,3.25.63,1.03,1.56,1.87,2.81,2.51,1.24.64,2.76.96,4.56.96Z"/>
    <path class="cls-3" d="M459.31,819.3c-2.51,0-4.68-.36-6.49-1.08-1.81-.72-3.2-1.76-4.18-3.12-.97-1.36-1.46-2.97-1.46-4.83s.47-3.33,1.41-4.6c.94-1.27,2.32-2.25,4.13-2.94,1.81-.69,4-1.03,6.58-1.03s4.73.34,6.55,1.03c1.83.69,3.23,1.67,4.2,2.94s1.46,2.81,1.46,4.6-.49,3.47-1.48,4.83c-.99,1.36-2.39,2.4-4.22,3.12-1.83.72-4,1.08-6.51,1.08ZM459.31,803.54c-2.33,0-4.32-.31-5.95-.94-1.63-.63-2.88-1.53-3.75-2.72-.87-1.18-1.3-2.6-1.3-4.24,0-1.74.46-3.23,1.37-4.47.91-1.24,2.19-2.19,3.84-2.85,1.65-.66,3.58-.99,5.79-.99s4.15.33,5.81.99,2.96,1.61,3.88,2.85c.93,1.24,1.39,2.73,1.39,4.47s-.43,3.06-1.3,4.24c-.87,1.18-2.13,2.09-3.79,2.72-1.66.63-3.66.94-5.99.94ZM459.31,816.56c2.78,0,4.96-.57,6.53-1.71,1.57-1.14,2.36-2.68,2.36-4.62s-.79-3.48-2.36-4.6c-1.57-1.12-3.75-1.68-6.53-1.68s-4.96.56-6.51,1.68c-1.56,1.12-2.33,2.66-2.33,4.6s.78,3.49,2.33,4.62c1.56,1.14,3.73,1.71,6.51,1.71ZM459.31,801.38c2.45,0,4.37-.51,5.75-1.53,1.38-1.02,2.07-2.38,2.07-4.09,0-1.8-.71-3.2-2.13-4.2-1.42-1-3.32-1.5-5.68-1.5s-4.25.5-5.66,1.5c-1.41,1-2.11,2.39-2.11,4.15s.68,3.11,2.04,4.13c1.36,1.02,3.27,1.53,5.72,1.53Z"/>
    <path class="cls-3" d="M474.36,810.77v-2.33l16.66-20.83h3.59l-16.52,20.83-1.75-.54h25.28v2.87h-27.25ZM492.09,819.03v-8.26l.09-2.87v-7.27h3.14v18.41h-3.23Z"/>
    <path class="cls-3" d="M516.34,819.3c-2.78,0-5.13-.62-7.05-1.86-1.92-1.24-3.37-3.04-4.36-5.39-.99-2.35-1.48-5.17-1.48-8.46,0-3.56.61-6.55,1.82-8.96,1.21-2.41,2.9-4.23,5.05-5.46,2.16-1.23,4.65-1.84,7.5-1.84,1.41,0,2.75.13,4.04.4s2.42.7,3.41,1.3l-1.3,2.6c-.81-.54-1.74-.92-2.78-1.15-1.05-.22-2.16-.34-3.32-.34-3.38,0-6.08,1.08-8.1,3.23s-3.03,5.37-3.03,9.65c0,.66.04,1.47.11,2.45.07.97.25,1.94.52,2.9l-1.12-.85c.33-1.56.97-2.88,1.93-3.97s2.16-1.92,3.59-2.49c1.44-.57,3.01-.85,4.71-.85,2.09,0,3.94.39,5.52,1.17s2.83,1.87,3.73,3.28c.9,1.41,1.35,3.07,1.35,4.98s-.46,3.64-1.39,5.1c-.93,1.45-2.21,2.58-3.84,3.37-1.63.79-3.46,1.19-5.5,1.19ZM516.2,816.56c1.5,0,2.82-.28,3.97-.83s2.06-1.35,2.72-2.38c.66-1.03.99-2.24.99-3.61,0-2.07-.71-3.71-2.13-4.94-1.42-1.23-3.35-1.84-5.77-1.84-1.62,0-3.02.3-4.22.9-1.2.6-2.14,1.41-2.83,2.45-.69,1.03-1.03,2.21-1.03,3.53,0,1.14.31,2.22.94,3.25s1.56,1.87,2.81,2.51c1.24.64,2.76.96,4.56.96Z"/>
    <path class="cls-3" d="M542.56,819.3c-2.78,0-5.13-.62-7.05-1.86-1.92-1.24-3.37-3.04-4.36-5.39-.99-2.35-1.48-5.17-1.48-8.46,0-3.56.61-6.55,1.82-8.96,1.21-2.41,2.9-4.23,5.05-5.46,2.16-1.23,4.65-1.84,7.5-1.84,1.41,0,2.75.13,4.04.4s2.42.7,3.41,1.3l-1.3,2.6c-.81-.54-1.74-.92-2.78-1.15-1.05-.22-2.16-.34-3.32-.34-3.38,0-6.08,1.08-8.1,3.23s-3.03,5.37-3.03,9.65c0,.66.04,1.47.11,2.45.07.97.25,1.94.52,2.9l-1.12-.85c.33-1.56.97-2.88,1.93-3.97s2.16-1.92,3.59-2.49c1.44-.57,3.01-.85,4.71-.85,2.09,0,3.94.39,5.52,1.17s2.83,1.87,3.73,3.28c.9,1.41,1.35,3.07,1.35,4.98s-.46,3.64-1.39,5.1c-.93,1.45-2.21,2.58-3.84,3.37-1.63.79-3.46,1.19-5.5,1.19ZM542.42,816.56c1.5,0,2.82-.28,3.97-.83s2.06-1.35,2.72-2.38c.66-1.03.99-2.24.99-3.61,0-2.07-.71-3.71-2.13-4.94-1.42-1.23-3.35-1.84-5.77-1.84-1.62,0-3.02.3-4.22.9-1.2.6-2.14,1.41-2.83,2.45-.69,1.03-1.03,2.21-1.03,3.53,0,1.14.31,2.22.94,3.25s1.56,1.87,2.81,2.51c1.24.64,2.76.96,4.56.96Z"/>
    <path class="cls-3" d="M561.37,819.03v-30.08l1.44,1.53h-8.84v-2.87h10.64v31.43h-3.23Z"/>
  </g>
</svg>